<mxfile host="65bd71144e">
    <diagram id="VLeXUzMlkxY-AijOh3s4" name="第 1 页">
        <mxGraphModel dx="2829" dy="1403" grid="1" gridSize="10" guides="1" tooltips="1" connect="1" arrows="1" fold="1" page="1" pageScale="1" pageWidth="3000" pageHeight="3000" math="0" shadow="0">
            <root>
                <mxCell id="0"/>
                <mxCell id="1" parent="0"/>
                <mxCell id="9" value="" style="edgeStyle=none;html=1;" parent="1" source="3" target="8" edge="1">
                    <mxGeometry relative="1" as="geometry"/>
                </mxCell>
                <mxCell id="3" value="初始化：&lt;br&gt;u=a,v=p&lt;br&gt;x1=1.x2=0,u_flag=1" style="whiteSpace=wrap;html=1;" parent="1" vertex="1">
                    <mxGeometry x="450" y="370" width="120" height="60" as="geometry"/>
                </mxCell>
                <mxCell id="4" value="S1" style="text;html=1;align=center;verticalAlign=middle;resizable=0;points=[];autosize=1;strokeColor=none;fillColor=none;" parent="1" vertex="1">
                    <mxGeometry x="490" y="340" width="40" height="30" as="geometry"/>
                </mxCell>
                <mxCell id="7" value="" style="edgeStyle=none;html=1;" parent="1" source="5" target="3" edge="1">
                    <mxGeometry relative="1" as="geometry"/>
                </mxCell>
                <mxCell id="5" value="idle" style="ellipse;whiteSpace=wrap;html=1;" parent="1" vertex="1">
                    <mxGeometry x="270" y="375" width="100" height="50" as="geometry"/>
                </mxCell>
                <mxCell id="6" value="S0" style="text;html=1;align=center;verticalAlign=middle;resizable=0;points=[];autosize=1;strokeColor=none;fillColor=none;" parent="1" vertex="1">
                    <mxGeometry x="300" y="345" width="40" height="30" as="geometry"/>
                </mxCell>
                <mxCell id="12" value="" style="edgeStyle=none;html=1;" parent="1" source="8" target="11" edge="1">
                    <mxGeometry relative="1" as="geometry"/>
                </mxCell>
                <mxCell id="15" value="" style="edgeStyle=none;html=1;" parent="1" source="8" target="14" edge="1">
                    <mxGeometry relative="1" as="geometry"/>
                </mxCell>
                <mxCell id="8" value="u≠1 &amp;amp;&amp;amp; v≠1" style="rhombus;whiteSpace=wrap;html=1;" parent="1" vertex="1">
                    <mxGeometry x="450" y="480" width="120" height="60" as="geometry"/>
                </mxCell>
                <mxCell id="18" value="" style="edgeStyle=none;html=1;" parent="1" source="11" target="17" edge="1">
                    <mxGeometry relative="1" as="geometry"/>
                </mxCell>
                <mxCell id="45" style="edgeStyle=none;html=1;exitX=1;exitY=0.5;exitDx=0;exitDy=0;entryX=0;entryY=0.5;entryDx=0;entryDy=0;" parent="1" source="11" target="44" edge="1">
                    <mxGeometry relative="1" as="geometry"/>
                </mxCell>
                <mxCell id="11" value="u是偶数" style="rhombus;whiteSpace=wrap;html=1;" parent="1" vertex="1">
                    <mxGeometry x="450" y="590" width="120" height="60" as="geometry"/>
                </mxCell>
                <mxCell id="13" value="Y" style="text;html=1;align=center;verticalAlign=middle;resizable=0;points=[];autosize=1;strokeColor=none;fillColor=none;" parent="1" vertex="1">
                    <mxGeometry x="510" y="550" width="30" height="30" as="geometry"/>
                </mxCell>
                <mxCell id="40" value="" style="edgeStyle=none;html=1;entryX=0;entryY=0.5;entryDx=0;entryDy=0;" parent="1" source="14" target="34" edge="1">
                    <mxGeometry relative="1" as="geometry"/>
                </mxCell>
                <mxCell id="41" style="edgeStyle=none;html=1;exitX=0.5;exitY=0;exitDx=0;exitDy=0;entryX=0;entryY=0.5;entryDx=0;entryDy=0;" parent="1" source="14" target="33" edge="1">
                    <mxGeometry relative="1" as="geometry">
                        <Array as="points">
                            <mxPoint x="680" y="420"/>
                        </Array>
                    </mxGeometry>
                </mxCell>
                <mxCell id="14" value="u=1" style="rhombus;whiteSpace=wrap;html=1;" parent="1" vertex="1">
                    <mxGeometry x="620" y="480" width="120" height="60" as="geometry"/>
                </mxCell>
                <mxCell id="16" value="N" style="text;html=1;align=center;verticalAlign=middle;resizable=0;points=[];autosize=1;strokeColor=none;fillColor=none;" parent="1" vertex="1">
                    <mxGeometry x="580" y="480" width="30" height="30" as="geometry"/>
                </mxCell>
                <mxCell id="21" value="" style="edgeStyle=none;html=1;" parent="1" source="17" target="20" edge="1">
                    <mxGeometry relative="1" as="geometry"/>
                </mxCell>
                <mxCell id="17" value="u=u/2" style="whiteSpace=wrap;html=1;" parent="1" vertex="1">
                    <mxGeometry x="450" y="690" width="120" height="60" as="geometry"/>
                </mxCell>
                <mxCell id="19" value="S2" style="text;html=1;align=center;verticalAlign=middle;resizable=0;points=[];autosize=1;strokeColor=none;fillColor=none;" parent="1" vertex="1">
                    <mxGeometry x="420" y="705" width="40" height="30" as="geometry"/>
                </mxCell>
                <mxCell id="27" value="" style="edgeStyle=none;html=1;" parent="1" source="20" target="26" edge="1">
                    <mxGeometry relative="1" as="geometry"/>
                </mxCell>
                <mxCell id="20" value="X1是偶数" style="rhombus;whiteSpace=wrap;html=1;" parent="1" vertex="1">
                    <mxGeometry x="450" y="790" width="120" height="60" as="geometry"/>
                </mxCell>
                <mxCell id="22" value="" style="edgeStyle=none;html=1;" parent="1" edge="1">
                    <mxGeometry relative="1" as="geometry">
                        <mxPoint x="510" y="850" as="sourcePoint"/>
                        <mxPoint x="510" y="900" as="targetPoint"/>
                    </mxGeometry>
                </mxCell>
                <mxCell id="23" value="Y" style="text;html=1;align=center;verticalAlign=middle;resizable=0;points=[];autosize=1;strokeColor=none;fillColor=none;" parent="1" vertex="1">
                    <mxGeometry x="510" y="860" width="30" height="30" as="geometry"/>
                </mxCell>
                <mxCell id="31" style="edgeStyle=none;html=1;exitX=0.5;exitY=1;exitDx=0;exitDy=0;entryX=0;entryY=0.5;entryDx=0;entryDy=0;" parent="1" source="24" target="11" edge="1">
                    <mxGeometry relative="1" as="geometry">
                        <Array as="points">
                            <mxPoint x="510" y="1020"/>
                            <mxPoint x="360" y="1020"/>
                            <mxPoint x="360" y="620"/>
                        </Array>
                    </mxGeometry>
                </mxCell>
                <mxCell id="24" value="x1=x1/2" style="whiteSpace=wrap;html=1;" parent="1" vertex="1">
                    <mxGeometry x="450" y="900" width="120" height="60" as="geometry"/>
                </mxCell>
                <mxCell id="25" value="S4" style="text;html=1;align=center;verticalAlign=middle;resizable=0;points=[];autosize=1;strokeColor=none;fillColor=none;" parent="1" vertex="1">
                    <mxGeometry x="660" y="760" width="40" height="30" as="geometry"/>
                </mxCell>
                <mxCell id="29" style="edgeStyle=none;html=1;entryX=1;entryY=0.5;entryDx=0;entryDy=0;" parent="1" source="26" target="24" edge="1">
                    <mxGeometry relative="1" as="geometry">
                        <Array as="points">
                            <mxPoint x="680" y="930"/>
                        </Array>
                    </mxGeometry>
                </mxCell>
                <mxCell id="26" value="x1=x1+p" style="whiteSpace=wrap;html=1;" parent="1" vertex="1">
                    <mxGeometry x="620" y="790" width="120" height="60" as="geometry"/>
                </mxCell>
                <mxCell id="28" value="N" style="text;html=1;align=center;verticalAlign=middle;resizable=0;points=[];autosize=1;strokeColor=none;fillColor=none;" parent="1" vertex="1">
                    <mxGeometry x="580" y="790" width="30" height="30" as="geometry"/>
                </mxCell>
                <mxCell id="32" value="Y" style="text;html=1;align=center;verticalAlign=middle;resizable=0;points=[];autosize=1;strokeColor=none;fillColor=none;" parent="1" vertex="1">
                    <mxGeometry x="510" y="650" width="30" height="30" as="geometry"/>
                </mxCell>
                <mxCell id="36" style="edgeStyle=none;html=1;exitX=1;exitY=0.5;exitDx=0;exitDy=0;entryX=0;entryY=0.5;entryDx=0;entryDy=0;" parent="1" source="33" target="35" edge="1">
                    <mxGeometry relative="1" as="geometry">
                        <Array as="points">
                            <mxPoint x="960" y="420"/>
                            <mxPoint x="960" y="470"/>
                        </Array>
                    </mxGeometry>
                </mxCell>
                <mxCell id="33" value="a^-1=x2" style="whiteSpace=wrap;html=1;" parent="1" vertex="1">
                    <mxGeometry x="810" y="390" width="120" height="60" as="geometry"/>
                </mxCell>
                <mxCell id="37" style="edgeStyle=none;html=1;exitX=1;exitY=0.5;exitDx=0;exitDy=0;entryX=0;entryY=0.5;entryDx=0;entryDy=0;" parent="1" source="34" target="35" edge="1">
                    <mxGeometry relative="1" as="geometry">
                        <Array as="points">
                            <mxPoint x="960" y="510"/>
                            <mxPoint x="960" y="470"/>
                        </Array>
                    </mxGeometry>
                </mxCell>
                <mxCell id="34" value="a^-1=x1" style="whiteSpace=wrap;html=1;" parent="1" vertex="1">
                    <mxGeometry x="810" y="480" width="120" height="60" as="geometry"/>
                </mxCell>
                <mxCell id="35" value="STOP" style="whiteSpace=wrap;html=1;" parent="1" vertex="1">
                    <mxGeometry x="1000" y="440" width="120" height="60" as="geometry"/>
                </mxCell>
                <mxCell id="38" value="S15" style="text;html=1;align=center;verticalAlign=middle;resizable=0;points=[];autosize=1;strokeColor=none;fillColor=none;" parent="1" vertex="1">
                    <mxGeometry x="850" y="350" width="40" height="30" as="geometry"/>
                </mxCell>
                <mxCell id="39" value="S14" style="text;html=1;align=center;verticalAlign=middle;resizable=0;points=[];autosize=1;strokeColor=none;fillColor=none;" parent="1" vertex="1">
                    <mxGeometry x="850" y="450" width="40" height="30" as="geometry"/>
                </mxCell>
                <mxCell id="42" value="N" style="text;html=1;align=center;verticalAlign=middle;resizable=0;points=[];autosize=1;strokeColor=none;fillColor=none;" parent="1" vertex="1">
                    <mxGeometry x="670" y="440" width="30" height="30" as="geometry"/>
                </mxCell>
                <mxCell id="43" value="Y" style="text;html=1;align=center;verticalAlign=middle;resizable=0;points=[];autosize=1;strokeColor=none;fillColor=none;" parent="1" vertex="1">
                    <mxGeometry x="750" y="480" width="30" height="30" as="geometry"/>
                </mxCell>
                <mxCell id="48" value="" style="edgeStyle=none;html=1;" parent="1" source="44" target="47" edge="1">
                    <mxGeometry relative="1" as="geometry"/>
                </mxCell>
                <mxCell id="66" style="edgeStyle=none;html=1;entryX=0;entryY=0.5;entryDx=0;entryDy=0;" parent="1" source="44" target="65" edge="1">
                    <mxGeometry relative="1" as="geometry"/>
                </mxCell>
                <mxCell id="44" value="v是偶数" style="rhombus;whiteSpace=wrap;html=1;" parent="1" vertex="1">
                    <mxGeometry x="810" y="590" width="120" height="60" as="geometry"/>
                </mxCell>
                <mxCell id="46" value="N" style="text;html=1;align=center;verticalAlign=middle;resizable=0;points=[];autosize=1;strokeColor=none;fillColor=none;" parent="1" vertex="1">
                    <mxGeometry x="665" y="590" width="30" height="30" as="geometry"/>
                </mxCell>
                <mxCell id="50" value="" style="edgeStyle=none;html=1;" parent="1" source="47" target="49" edge="1">
                    <mxGeometry relative="1" as="geometry"/>
                </mxCell>
                <mxCell id="47" value="v=v/2" style="whiteSpace=wrap;html=1;" parent="1" vertex="1">
                    <mxGeometry x="810" y="690" width="120" height="60" as="geometry"/>
                </mxCell>
                <mxCell id="52" value="" style="edgeStyle=none;html=1;" parent="1" source="49" target="51" edge="1">
                    <mxGeometry relative="1" as="geometry"/>
                </mxCell>
                <mxCell id="54" value="" style="edgeStyle=none;html=1;" parent="1" source="49" target="53" edge="1">
                    <mxGeometry relative="1" as="geometry"/>
                </mxCell>
                <mxCell id="49" value="x2是偶数" style="rhombus;whiteSpace=wrap;html=1;" parent="1" vertex="1">
                    <mxGeometry x="810" y="790" width="120" height="60" as="geometry"/>
                </mxCell>
                <mxCell id="64" style="edgeStyle=none;html=1;exitX=0.5;exitY=1;exitDx=0;exitDy=0;" parent="1" source="51" edge="1">
                    <mxGeometry relative="1" as="geometry">
                        <mxPoint x="760" y="620" as="targetPoint"/>
                        <Array as="points">
                            <mxPoint x="870" y="1000"/>
                            <mxPoint x="760" y="1000"/>
                        </Array>
                    </mxGeometry>
                </mxCell>
                <mxCell id="51" value="x2=x2/2" style="whiteSpace=wrap;html=1;" parent="1" vertex="1">
                    <mxGeometry x="810" y="890" width="120" height="60" as="geometry"/>
                </mxCell>
                <mxCell id="55" style="edgeStyle=none;html=1;exitX=0.5;exitY=1;exitDx=0;exitDy=0;entryX=1;entryY=0.5;entryDx=0;entryDy=0;" parent="1" source="53" target="51" edge="1">
                    <mxGeometry relative="1" as="geometry">
                        <Array as="points">
                            <mxPoint x="1060" y="920"/>
                        </Array>
                    </mxGeometry>
                </mxCell>
                <mxCell id="53" value="x2=x2+p" style="whiteSpace=wrap;html=1;" parent="1" vertex="1">
                    <mxGeometry x="1000" y="790" width="120" height="60" as="geometry"/>
                </mxCell>
                <mxCell id="56" value="S5" style="text;html=1;align=center;verticalAlign=middle;resizable=0;points=[];autosize=1;strokeColor=none;fillColor=none;" parent="1" vertex="1">
                    <mxGeometry x="780" y="705" width="40" height="30" as="geometry"/>
                </mxCell>
                <mxCell id="57" value="S7" style="text;html=1;align=center;verticalAlign=middle;resizable=0;points=[];autosize=1;strokeColor=none;fillColor=none;" parent="1" vertex="1">
                    <mxGeometry x="1035" y="760" width="40" height="30" as="geometry"/>
                </mxCell>
                <mxCell id="58" value="S7" style="text;html=1;align=center;verticalAlign=middle;resizable=0;points=[];autosize=1;strokeColor=none;fillColor=none;" parent="1" vertex="1">
                    <mxGeometry x="780" y="905" width="40" height="30" as="geometry"/>
                </mxCell>
                <mxCell id="60" value="N" style="text;html=1;align=center;verticalAlign=middle;resizable=0;points=[];autosize=1;strokeColor=none;fillColor=none;" parent="1" vertex="1">
                    <mxGeometry x="950" y="790" width="30" height="30" as="geometry"/>
                </mxCell>
                <mxCell id="61" value="N" style="text;html=1;align=center;verticalAlign=middle;resizable=0;points=[];autosize=1;strokeColor=none;fillColor=none;" parent="1" vertex="1">
                    <mxGeometry x="1040" y="590" width="30" height="30" as="geometry"/>
                </mxCell>
                <mxCell id="62" value="Y" style="text;html=1;align=center;verticalAlign=middle;resizable=0;points=[];autosize=1;strokeColor=none;fillColor=none;" parent="1" vertex="1">
                    <mxGeometry x="870" y="850" width="30" height="30" as="geometry"/>
                </mxCell>
                <mxCell id="63" value="Y" style="text;html=1;align=center;verticalAlign=middle;resizable=0;points=[];autosize=1;strokeColor=none;fillColor=none;" parent="1" vertex="1">
                    <mxGeometry x="870" y="650" width="30" height="30" as="geometry"/>
                </mxCell>
                <mxCell id="71" value="" style="edgeStyle=none;html=1;" parent="1" source="65" target="67" edge="1">
                    <mxGeometry relative="1" as="geometry"/>
                </mxCell>
                <mxCell id="65" value="t=u-v" style="whiteSpace=wrap;html=1;" parent="1" vertex="1">
                    <mxGeometry x="1190" y="590" width="120" height="60" as="geometry"/>
                </mxCell>
                <mxCell id="70" value="" style="edgeStyle=none;html=1;" parent="1" source="67" target="68" edge="1">
                    <mxGeometry relative="1" as="geometry"/>
                </mxCell>
                <mxCell id="72" value="" style="edgeStyle=none;html=1;" parent="1" source="67" target="69" edge="1">
                    <mxGeometry relative="1" as="geometry"/>
                </mxCell>
                <mxCell id="67" value="t&amp;gt;=0" style="rhombus;whiteSpace=wrap;html=1;" parent="1" vertex="1">
                    <mxGeometry x="1190" y="690" width="120" height="60" as="geometry"/>
                </mxCell>
                <mxCell id="77" value="" style="edgeStyle=none;html=1;" parent="1" source="68" target="75" edge="1">
                    <mxGeometry relative="1" as="geometry"/>
                </mxCell>
                <mxCell id="68" value="x1=x1-x2" style="whiteSpace=wrap;html=1;" parent="1" vertex="1">
                    <mxGeometry x="1190" y="790" width="120" height="60" as="geometry"/>
                </mxCell>
                <mxCell id="74" value="" style="edgeStyle=none;html=1;" parent="1" source="69" target="73" edge="1">
                    <mxGeometry relative="1" as="geometry"/>
                </mxCell>
                <mxCell id="69" value="v=v-u" style="whiteSpace=wrap;html=1;" parent="1" vertex="1">
                    <mxGeometry x="1400" y="690" width="120" height="60" as="geometry"/>
                </mxCell>
                <mxCell id="78" value="" style="edgeStyle=none;html=1;" parent="1" source="73" target="76" edge="1">
                    <mxGeometry relative="1" as="geometry"/>
                </mxCell>
                <mxCell id="73" value="x2=x2-x1" style="whiteSpace=wrap;html=1;" parent="1" vertex="1">
                    <mxGeometry x="1400" y="790" width="120" height="60" as="geometry"/>
                </mxCell>
                <mxCell id="88" value="" style="edgeStyle=none;html=1;" parent="1" source="75" target="83" edge="1">
                    <mxGeometry relative="1" as="geometry"/>
                </mxCell>
                <mxCell id="95" style="edgeStyle=none;html=1;exitX=1;exitY=0.5;exitDx=0;exitDy=0;" parent="1" source="75" edge="1">
                    <mxGeometry relative="1" as="geometry">
                        <mxPoint x="1360" y="1120" as="targetPoint"/>
                        <Array as="points">
                            <mxPoint x="1360" y="920"/>
                        </Array>
                    </mxGeometry>
                </mxCell>
                <mxCell id="75" value="x1&amp;lt;0" style="rhombus;whiteSpace=wrap;html=1;" parent="1" vertex="1">
                    <mxGeometry x="1190" y="890" width="120" height="60" as="geometry"/>
                </mxCell>
                <mxCell id="89" value="" style="edgeStyle=none;html=1;" parent="1" source="76" target="87" edge="1">
                    <mxGeometry relative="1" as="geometry"/>
                </mxCell>
                <mxCell id="76" value="x2&amp;lt;0" style="rhombus;whiteSpace=wrap;html=1;" parent="1" vertex="1">
                    <mxGeometry x="1400" y="890" width="120" height="60" as="geometry"/>
                </mxCell>
                <mxCell id="79" value="Y" style="text;html=1;align=center;verticalAlign=middle;resizable=0;points=[];autosize=1;strokeColor=none;fillColor=none;" parent="1" vertex="1">
                    <mxGeometry x="1240" y="750" width="30" height="30" as="geometry"/>
                </mxCell>
                <mxCell id="80" value="Y" style="text;html=1;align=center;verticalAlign=middle;resizable=0;points=[];autosize=1;strokeColor=none;fillColor=none;" parent="1" vertex="1">
                    <mxGeometry x="1240" y="950" width="30" height="30" as="geometry"/>
                </mxCell>
                <mxCell id="82" value="Y" style="text;html=1;align=center;verticalAlign=middle;resizable=0;points=[];autosize=1;strokeColor=none;fillColor=none;" parent="1" vertex="1">
                    <mxGeometry x="1450" y="950" width="30" height="30" as="geometry"/>
                </mxCell>
                <mxCell id="83" value="x1=x1+p" style="whiteSpace=wrap;html=1;" parent="1" vertex="1">
                    <mxGeometry x="1190" y="990" width="120" height="60" as="geometry"/>
                </mxCell>
                <mxCell id="87" value="x2=x2+p" style="whiteSpace=wrap;html=1;" parent="1" vertex="1">
                    <mxGeometry x="1400" y="990" width="120" height="60" as="geometry"/>
                </mxCell>
                <mxCell id="90" value="S9" style="text;html=1;align=center;verticalAlign=middle;resizable=0;points=[];autosize=1;strokeColor=none;fillColor=none;" parent="1" vertex="1">
                    <mxGeometry x="1160" y="805" width="40" height="30" as="geometry"/>
                </mxCell>
                <mxCell id="91" value="S11" style="text;html=1;align=center;verticalAlign=middle;resizable=0;points=[];autosize=1;strokeColor=none;fillColor=none;" parent="1" vertex="1">
                    <mxGeometry x="1370" y="805" width="40" height="30" as="geometry"/>
                </mxCell>
                <mxCell id="92" value="S10" style="text;html=1;align=center;verticalAlign=middle;resizable=0;points=[];autosize=1;strokeColor=none;fillColor=none;" parent="1" vertex="1">
                    <mxGeometry x="1440" y="660" width="40" height="30" as="geometry"/>
                </mxCell>
                <mxCell id="93" value="S12" style="text;html=1;align=center;verticalAlign=middle;resizable=0;points=[];autosize=1;strokeColor=none;fillColor=none;" parent="1" vertex="1">
                    <mxGeometry x="1160" y="1005" width="40" height="30" as="geometry"/>
                </mxCell>
                <mxCell id="94" value="S13" style="text;html=1;align=center;verticalAlign=middle;resizable=0;points=[];autosize=1;strokeColor=none;fillColor=none;" parent="1" vertex="1">
                    <mxGeometry x="1370" y="1005" width="40" height="30" as="geometry"/>
                </mxCell>
                <mxCell id="96" value="N" style="text;html=1;align=center;verticalAlign=middle;resizable=0;points=[];autosize=1;strokeColor=none;fillColor=none;" parent="1" vertex="1">
                    <mxGeometry x="1320" y="890" width="30" height="30" as="geometry"/>
                </mxCell>
                <mxCell id="97" style="edgeStyle=none;html=1;exitX=1;exitY=0.5;exitDx=0;exitDy=0;" parent="1" edge="1">
                    <mxGeometry relative="1" as="geometry">
                        <mxPoint x="1570" y="1119.9999999999998" as="targetPoint"/>
                        <mxPoint x="1520" y="919.9999999999998" as="sourcePoint"/>
                        <Array as="points">
                            <mxPoint x="1570" y="920"/>
                        </Array>
                    </mxGeometry>
                </mxCell>
                <mxCell id="98" value="N" style="text;html=1;align=center;verticalAlign=middle;resizable=0;points=[];autosize=1;strokeColor=none;fillColor=none;" parent="1" vertex="1">
                    <mxGeometry x="1530" y="890" width="30" height="30" as="geometry"/>
                </mxCell>
                <mxCell id="99" value="N" style="text;html=1;align=center;verticalAlign=middle;resizable=0;points=[];autosize=1;strokeColor=none;fillColor=none;" parent="1" vertex="1">
                    <mxGeometry x="1340" y="690" width="30" height="30" as="geometry"/>
                </mxCell>
                <mxCell id="100" value="S8" style="text;html=1;align=center;verticalAlign=middle;resizable=0;points=[];autosize=1;strokeColor=none;fillColor=none;" parent="1" vertex="1">
                    <mxGeometry x="1230" y="560" width="40" height="30" as="geometry"/>
                </mxCell>
                <mxCell id="101" value="" style="endArrow=classic;html=1;entryX=0;entryY=0.5;entryDx=0;entryDy=0;" parent="1" target="8" edge="1">
                    <mxGeometry width="50" height="50" relative="1" as="geometry">
                        <mxPoint x="1570" y="1120" as="sourcePoint"/>
                        <mxPoint x="300" y="740" as="targetPoint"/>
                        <Array as="points">
                            <mxPoint x="210" y="1120"/>
                            <mxPoint x="210" y="510"/>
                        </Array>
                    </mxGeometry>
                </mxCell>
                <mxCell id="102" value="" style="endArrow=classic;html=1;exitX=0.5;exitY=1;exitDx=0;exitDy=0;" parent="1" source="83" edge="1">
                    <mxGeometry width="50" height="50" relative="1" as="geometry">
                        <mxPoint x="1050" y="1110" as="sourcePoint"/>
                        <mxPoint x="1250" y="1120" as="targetPoint"/>
                    </mxGeometry>
                </mxCell>
                <mxCell id="103" value="" style="endArrow=classic;html=1;exitX=0.5;exitY=1;exitDx=0;exitDy=0;" parent="1" edge="1">
                    <mxGeometry width="50" height="50" relative="1" as="geometry">
                        <mxPoint x="1249.76" y="1050" as="sourcePoint"/>
                        <mxPoint x="1249.76" y="1120" as="targetPoint"/>
                    </mxGeometry>
                </mxCell>
                <mxCell id="104" value="" style="endArrow=classic;html=1;exitX=0.5;exitY=1;exitDx=0;exitDy=0;" parent="1" edge="1">
                    <mxGeometry width="50" height="50" relative="1" as="geometry">
                        <mxPoint x="1459.7600000000002" y="1050" as="sourcePoint"/>
                        <mxPoint x="1459.7600000000002" y="1120" as="targetPoint"/>
                    </mxGeometry>
                </mxCell>
                <mxCell id="105" value="S3" style="text;html=1;align=center;verticalAlign=middle;resizable=0;points=[];autosize=1;strokeColor=none;fillColor=none;" parent="1" vertex="1">
                    <mxGeometry x="420" y="915" width="40" height="30" as="geometry"/>
                </mxCell>
                <mxCell id="107" value="模逆:" style="text;html=1;align=center;verticalAlign=middle;resizable=0;points=[];autosize=1;strokeColor=none;fillColor=none;" vertex="1" parent="1">
                    <mxGeometry x="240" y="290" width="50" height="30" as="geometry"/>
                </mxCell>
                <mxCell id="137" style="edgeStyle=none;html=1;exitX=0.5;exitY=1;exitDx=0;exitDy=0;entryX=0.081;entryY=0;entryDx=0;entryDy=0;entryPerimeter=0;" edge="1" parent="1" source="108" target="130">
                    <mxGeometry relative="1" as="geometry">
                        <Array as="points">
                            <mxPoint x="2100" y="680"/>
                            <mxPoint x="2180" y="680"/>
                        </Array>
                    </mxGeometry>
                </mxCell>
                <mxCell id="108" value="reg_u" style="whiteSpace=wrap;html=1;" vertex="1" parent="1">
                    <mxGeometry x="2040" y="535" width="120" height="85" as="geometry"/>
                </mxCell>
                <mxCell id="139" style="edgeStyle=none;shape=connector;rounded=1;html=1;exitDx=0;exitDy=0;labelBackgroundColor=default;strokeColor=default;fontFamily=Helvetica;fontSize=11;fontColor=default;endArrow=classic;entryX=0.5;entryY=0;entryDx=0;entryDy=0;startArrow=none;" edge="1" parent="1" source="184" target="130">
                    <mxGeometry relative="1" as="geometry">
                        <mxPoint x="2260" y="720" as="targetPoint"/>
                        <Array as="points">
                            <mxPoint x="2230" y="640"/>
                        </Array>
                    </mxGeometry>
                </mxCell>
                <mxCell id="109" value="reg_v" style="whiteSpace=wrap;html=1;" vertex="1" parent="1">
                    <mxGeometry x="2360" y="535" width="120" height="85" as="geometry"/>
                </mxCell>
                <mxCell id="141" style="edgeStyle=none;shape=connector;rounded=1;html=1;exitX=0.5;exitY=1;exitDx=0;exitDy=0;entryX=1;entryY=0;entryDx=0;entryDy=0;labelBackgroundColor=default;strokeColor=default;fontFamily=Helvetica;fontSize=11;fontColor=default;endArrow=classic;" edge="1" parent="1" source="110" target="131">
                    <mxGeometry relative="1" as="geometry">
                        <Array as="points">
                            <mxPoint x="2740" y="640"/>
                            <mxPoint x="2600" y="640"/>
                        </Array>
                    </mxGeometry>
                </mxCell>
                <mxCell id="110" value="reg_p" style="whiteSpace=wrap;html=1;" vertex="1" parent="1">
                    <mxGeometry x="2680" y="535" width="120" height="85" as="geometry"/>
                </mxCell>
                <mxCell id="111" value="" style="edgeStyle=none;orthogonalLoop=1;jettySize=auto;html=1;" edge="1" parent="1">
                    <mxGeometry width="100" relative="1" as="geometry">
                        <mxPoint x="1940" y="550" as="sourcePoint"/>
                        <mxPoint x="2040" y="550" as="targetPoint"/>
                        <Array as="points"/>
                    </mxGeometry>
                </mxCell>
                <mxCell id="112" value="" style="edgeStyle=none;orthogonalLoop=1;jettySize=auto;html=1;" edge="1" parent="1">
                    <mxGeometry width="100" relative="1" as="geometry">
                        <mxPoint x="1939.9999999999995" y="580" as="sourcePoint"/>
                        <mxPoint x="2039.9999999999995" y="580" as="targetPoint"/>
                        <Array as="points"/>
                    </mxGeometry>
                </mxCell>
                <mxCell id="113" value="" style="edgeStyle=none;orthogonalLoop=1;jettySize=auto;html=1;" edge="1" parent="1">
                    <mxGeometry width="100" relative="1" as="geometry">
                        <mxPoint x="1939.9999999999995" y="610" as="sourcePoint"/>
                        <mxPoint x="2039.9999999999995" y="610" as="targetPoint"/>
                        <Array as="points"/>
                    </mxGeometry>
                </mxCell>
                <mxCell id="114" value="regu_we" style="text;html=1;align=center;verticalAlign=middle;resizable=0;points=[];autosize=1;strokeColor=none;fillColor=none;" vertex="1" parent="1">
                    <mxGeometry x="1950" y="520" width="70" height="30" as="geometry"/>
                </mxCell>
                <mxCell id="115" value="regu_cyc" style="text;html=1;align=center;verticalAlign=middle;resizable=0;points=[];autosize=1;strokeColor=none;fillColor=none;" vertex="1" parent="1">
                    <mxGeometry x="1950" y="550" width="70" height="30" as="geometry"/>
                </mxCell>
                <mxCell id="116" value="regu_rs" style="text;html=1;align=center;verticalAlign=middle;resizable=0;points=[];autosize=1;strokeColor=none;fillColor=none;" vertex="1" parent="1">
                    <mxGeometry x="1955" y="580" width="60" height="30" as="geometry"/>
                </mxCell>
                <mxCell id="117" value="" style="edgeStyle=none;orthogonalLoop=1;jettySize=auto;html=1;" edge="1" parent="1">
                    <mxGeometry width="100" relative="1" as="geometry">
                        <mxPoint x="2260" y="550" as="sourcePoint"/>
                        <mxPoint x="2360" y="550" as="targetPoint"/>
                        <Array as="points"/>
                    </mxGeometry>
                </mxCell>
                <mxCell id="118" value="" style="edgeStyle=none;orthogonalLoop=1;jettySize=auto;html=1;" edge="1" parent="1">
                    <mxGeometry width="100" relative="1" as="geometry">
                        <mxPoint x="2259.9999999999995" y="580" as="sourcePoint"/>
                        <mxPoint x="2359.9999999999995" y="580" as="targetPoint"/>
                        <Array as="points"/>
                    </mxGeometry>
                </mxCell>
                <mxCell id="119" value="" style="edgeStyle=none;orthogonalLoop=1;jettySize=auto;html=1;" edge="1" parent="1">
                    <mxGeometry width="100" relative="1" as="geometry">
                        <mxPoint x="2259.9999999999995" y="610" as="sourcePoint"/>
                        <mxPoint x="2359.9999999999995" y="610" as="targetPoint"/>
                        <Array as="points"/>
                    </mxGeometry>
                </mxCell>
                <mxCell id="120" value="regv_we" style="text;html=1;align=center;verticalAlign=middle;resizable=0;points=[];autosize=1;strokeColor=none;fillColor=none;" vertex="1" parent="1">
                    <mxGeometry x="2270" y="520" width="70" height="30" as="geometry"/>
                </mxCell>
                <mxCell id="121" value="regv_cyc" style="text;html=1;align=center;verticalAlign=middle;resizable=0;points=[];autosize=1;strokeColor=none;fillColor=none;" vertex="1" parent="1">
                    <mxGeometry x="2270" y="550" width="70" height="30" as="geometry"/>
                </mxCell>
                <mxCell id="122" value="regv_rs" style="text;html=1;align=center;verticalAlign=middle;resizable=0;points=[];autosize=1;strokeColor=none;fillColor=none;" vertex="1" parent="1">
                    <mxGeometry x="2275" y="580" width="60" height="30" as="geometry"/>
                </mxCell>
                <mxCell id="123" value="" style="edgeStyle=none;orthogonalLoop=1;jettySize=auto;html=1;" edge="1" parent="1">
                    <mxGeometry width="100" relative="1" as="geometry">
                        <mxPoint x="2580" y="550" as="sourcePoint"/>
                        <mxPoint x="2680" y="550" as="targetPoint"/>
                        <Array as="points"/>
                    </mxGeometry>
                </mxCell>
                <mxCell id="124" value="" style="edgeStyle=none;orthogonalLoop=1;jettySize=auto;html=1;" edge="1" parent="1">
                    <mxGeometry width="100" relative="1" as="geometry">
                        <mxPoint x="2579.9999999999995" y="580" as="sourcePoint"/>
                        <mxPoint x="2679.9999999999995" y="580" as="targetPoint"/>
                        <Array as="points"/>
                    </mxGeometry>
                </mxCell>
                <mxCell id="126" value="regp_we" style="text;html=1;align=center;verticalAlign=middle;resizable=0;points=[];autosize=1;strokeColor=none;fillColor=none;" vertex="1" parent="1">
                    <mxGeometry x="2590" y="520" width="70" height="30" as="geometry"/>
                </mxCell>
                <mxCell id="127" value="regp_cyc" style="text;html=1;align=center;verticalAlign=middle;resizable=0;points=[];autosize=1;strokeColor=none;fillColor=none;" vertex="1" parent="1">
                    <mxGeometry x="2590" y="550" width="70" height="30" as="geometry"/>
                </mxCell>
                <mxCell id="163" value="" style="edgeStyle=none;shape=connector;rounded=1;html=1;labelBackgroundColor=default;strokeColor=default;fontFamily=Helvetica;fontSize=11;fontColor=default;endArrow=classic;" edge="1" parent="1" source="129" target="108">
                    <mxGeometry relative="1" as="geometry"/>
                </mxCell>
                <mxCell id="129" value="mux3" style="whiteSpace=wrap;html=1;" vertex="1" parent="1">
                    <mxGeometry x="2040" y="410" width="120" height="60" as="geometry"/>
                </mxCell>
                <mxCell id="133" style="edgeStyle=none;html=1;exitX=0.5;exitY=1;exitDx=0;exitDy=0;entryX=0.139;entryY=0.022;entryDx=0;entryDy=0;entryPerimeter=0;" edge="1" parent="1" source="130" target="132">
                    <mxGeometry relative="1" as="geometry"/>
                </mxCell>
                <mxCell id="135" value="16" style="edgeLabel;html=1;align=center;verticalAlign=middle;resizable=0;points=[];" vertex="1" connectable="0" parent="133">
                    <mxGeometry x="-0.1518" relative="1" as="geometry">
                        <mxPoint y="19" as="offset"/>
                    </mxGeometry>
                </mxCell>
                <mxCell id="130" value="mux0" style="whiteSpace=wrap;html=1;" vertex="1" parent="1">
                    <mxGeometry x="2170" y="735" width="120" height="60" as="geometry"/>
                </mxCell>
                <mxCell id="134" style="edgeStyle=none;html=1;exitX=0.5;exitY=1;exitDx=0;exitDy=0;" edge="1" parent="1" source="131">
                    <mxGeometry relative="1" as="geometry">
                        <mxPoint x="2540" y="910" as="targetPoint"/>
                    </mxGeometry>
                </mxCell>
                <mxCell id="136" value="16" style="edgeLabel;html=1;align=center;verticalAlign=middle;resizable=0;points=[];" vertex="1" connectable="0" parent="134">
                    <mxGeometry x="-0.1461" y="-2" relative="1" as="geometry">
                        <mxPoint x="1" y="19" as="offset"/>
                    </mxGeometry>
                </mxCell>
                <mxCell id="131" value="mux1" style="whiteSpace=wrap;html=1;" vertex="1" parent="1">
                    <mxGeometry x="2480" y="735" width="120" height="60" as="geometry"/>
                </mxCell>
                <mxCell id="143" value="" style="edgeStyle=none;shape=connector;rounded=1;html=1;labelBackgroundColor=default;strokeColor=default;fontFamily=Helvetica;fontSize=11;fontColor=default;endArrow=classic;" edge="1" parent="1" source="132" target="142">
                    <mxGeometry relative="1" as="geometry"/>
                </mxCell>
                <mxCell id="157" style="edgeStyle=none;shape=connector;rounded=1;html=1;exitDx=0;exitDy=0;labelBackgroundColor=default;strokeColor=default;fontFamily=Helvetica;fontSize=11;fontColor=default;endArrow=classic;startArrow=none;" edge="1" parent="1">
                    <mxGeometry relative="1" as="geometry">
                        <mxPoint x="2390" y="1060" as="targetPoint"/>
                        <mxPoint x="2390" y="1055" as="sourcePoint"/>
                    </mxGeometry>
                </mxCell>
                <mxCell id="132" value="add_16" style="whiteSpace=wrap;html=1;" vertex="1" parent="1">
                    <mxGeometry x="2170" y="915" width="430" height="60" as="geometry"/>
                </mxCell>
                <mxCell id="138" value="" style="edgeStyle=none;orthogonalLoop=1;jettySize=auto;html=1;entryX=0.127;entryY=0.022;entryDx=0;entryDy=0;entryPerimeter=0;" edge="1" parent="1" target="131">
                    <mxGeometry width="100" relative="1" as="geometry">
                        <mxPoint x="2170" y="680" as="sourcePoint"/>
                        <mxPoint x="2310" y="679.2" as="targetPoint"/>
                        <Array as="points">
                            <mxPoint x="2495" y="680"/>
                        </Array>
                    </mxGeometry>
                </mxCell>
                <mxCell id="140" value="" style="edgeStyle=none;orthogonalLoop=1;jettySize=auto;html=1;entryX=0.5;entryY=0;entryDx=0;entryDy=0;startArrow=none;" edge="1" parent="1" source="184" target="131">
                    <mxGeometry width="100" relative="1" as="geometry">
                        <mxPoint x="2410" y="640" as="sourcePoint"/>
                        <mxPoint x="2590" y="735" as="targetPoint"/>
                        <Array as="points">
                            <mxPoint x="2540" y="640"/>
                        </Array>
                    </mxGeometry>
                </mxCell>
                <mxCell id="142" value="dff_0" style="whiteSpace=wrap;html=1;fontFamily=Helvetica;fontSize=11;fontColor=default;" vertex="1" parent="1">
                    <mxGeometry x="2020" y="910" width="60" height="70" as="geometry"/>
                </mxCell>
                <mxCell id="144" value="c_out" style="text;html=1;align=center;verticalAlign=middle;resizable=0;points=[];autosize=1;strokeColor=none;fillColor=none;fontSize=11;fontFamily=Helvetica;fontColor=default;" vertex="1" parent="1">
                    <mxGeometry x="2100" y="915" width="50" height="30" as="geometry"/>
                </mxCell>
                <mxCell id="148" style="edgeStyle=none;shape=connector;rounded=1;html=1;exitX=0;exitY=0.5;exitDx=0;exitDy=0;entryX=1;entryY=0.5;entryDx=0;entryDy=0;labelBackgroundColor=default;strokeColor=default;fontFamily=Helvetica;fontSize=11;fontColor=default;endArrow=classic;" edge="1" parent="1" source="145" target="132">
                    <mxGeometry relative="1" as="geometry"/>
                </mxCell>
                <mxCell id="145" value="mux" style="whiteSpace=wrap;html=1;fontFamily=Helvetica;fontSize=11;fontColor=default;" vertex="1" parent="1">
                    <mxGeometry x="2702.5" y="902.5" width="40" height="85" as="geometry"/>
                </mxCell>
                <mxCell id="146" value="" style="edgeStyle=none;orthogonalLoop=1;jettySize=auto;html=1;rounded=1;labelBackgroundColor=default;strokeColor=default;fontFamily=Helvetica;fontSize=11;fontColor=default;endArrow=classic;shape=connector;entryX=0.5;entryY=0;entryDx=0;entryDy=0;" edge="1" parent="1" target="145">
                    <mxGeometry width="100" relative="1" as="geometry">
                        <mxPoint x="2723" y="860" as="sourcePoint"/>
                        <mxPoint x="2770" y="850" as="targetPoint"/>
                        <Array as="points"/>
                    </mxGeometry>
                </mxCell>
                <mxCell id="147" value="carry_out" style="text;html=1;align=center;verticalAlign=middle;resizable=0;points=[];autosize=1;strokeColor=none;fillColor=none;fontSize=11;fontFamily=Helvetica;fontColor=default;" vertex="1" parent="1">
                    <mxGeometry x="2687.5" y="835" width="70" height="30" as="geometry"/>
                </mxCell>
                <mxCell id="149" value="carry_in" style="text;html=1;align=center;verticalAlign=middle;resizable=0;points=[];autosize=1;strokeColor=none;fillColor=none;fontSize=11;fontFamily=Helvetica;fontColor=default;" vertex="1" parent="1">
                    <mxGeometry x="2620" y="915" width="60" height="30" as="geometry"/>
                </mxCell>
                <mxCell id="150" value="" style="edgeStyle=segmentEdgeStyle;endArrow=classic;html=1;curved=0;rounded=0;endSize=8;startSize=8;sourcePerimeterSpacing=0;targetPerimeterSpacing=0;labelBackgroundColor=default;strokeColor=default;fontFamily=Helvetica;fontSize=11;fontColor=default;shape=connector;" edge="1" parent="1">
                    <mxGeometry width="100" relative="1" as="geometry">
                        <mxPoint x="2540" y="820" as="sourcePoint"/>
                        <mxPoint x="2743" y="920" as="targetPoint"/>
                        <Array as="points">
                            <mxPoint x="2810" y="820"/>
                            <mxPoint x="2810" y="920"/>
                            <mxPoint x="2743" y="920"/>
                        </Array>
                    </mxGeometry>
                </mxCell>
                <mxCell id="151" value="add_sub" style="text;html=1;align=center;verticalAlign=middle;resizable=0;points=[];autosize=1;strokeColor=none;fillColor=none;fontSize=11;fontFamily=Helvetica;fontColor=default;" vertex="1" parent="1">
                    <mxGeometry x="2635" y="795" width="70" height="30" as="geometry"/>
                </mxCell>
                <mxCell id="152" value="" style="edgeStyle=segmentEdgeStyle;endArrow=classic;html=1;curved=0;rounded=0;endSize=8;startSize=8;sourcePerimeterSpacing=0;targetPerimeterSpacing=0;labelBackgroundColor=default;strokeColor=default;fontFamily=Helvetica;fontSize=11;fontColor=default;shape=connector;exitX=0;exitY=0.5;exitDx=0;exitDy=0;entryX=1;entryY=0.75;entryDx=0;entryDy=0;" edge="1" parent="1" source="142" target="145">
                    <mxGeometry width="100" relative="1" as="geometry">
                        <mxPoint x="1930" y="930" as="sourcePoint"/>
                        <mxPoint x="2030" y="970" as="targetPoint"/>
                        <Array as="points">
                            <mxPoint x="1980" y="945"/>
                            <mxPoint x="1980" y="1030"/>
                            <mxPoint x="2810" y="1030"/>
                            <mxPoint x="2810" y="966"/>
                        </Array>
                    </mxGeometry>
                </mxCell>
                <mxCell id="153" value="carry" style="text;html=1;align=center;verticalAlign=middle;resizable=0;points=[];autosize=1;strokeColor=none;fillColor=none;fontSize=11;fontFamily=Helvetica;fontColor=default;" vertex="1" parent="1">
                    <mxGeometry x="1965" y="915" width="50" height="30" as="geometry"/>
                </mxCell>
                <mxCell id="155" value="sum_16" style="text;html=1;align=center;verticalAlign=middle;resizable=0;points=[];autosize=1;strokeColor=none;fillColor=none;fontSize=11;fontFamily=Helvetica;fontColor=default;" vertex="1" parent="1">
                    <mxGeometry x="2320" y="1035" width="60" height="30" as="geometry"/>
                </mxCell>
                <mxCell id="156" value="" style="edgeStyle=segmentEdgeStyle;endArrow=classic;html=1;curved=0;rounded=0;endSize=8;startSize=8;targetPerimeterSpacing=0;labelBackgroundColor=default;strokeColor=default;fontFamily=Helvetica;fontSize=11;fontColor=default;shape=connector;entryX=0.25;entryY=0;entryDx=0;entryDy=0;startArrow=none;" edge="1" parent="1" source="178" target="129">
                    <mxGeometry width="100" relative="1" as="geometry">
                        <mxPoint x="2390" y="1050" as="sourcePoint"/>
                        <mxPoint x="2100" y="460" as="targetPoint"/>
                        <Array as="points">
                            <mxPoint x="1850" y="1100"/>
                            <mxPoint x="1850" y="340"/>
                            <mxPoint x="2070" y="340"/>
                        </Array>
                    </mxGeometry>
                </mxCell>
                <mxCell id="158" value="sum_16" style="text;html=1;align=center;verticalAlign=middle;resizable=0;points=[];autosize=1;strokeColor=none;fillColor=none;fontSize=11;fontFamily=Helvetica;fontColor=default;" vertex="1" parent="1">
                    <mxGeometry x="2015" y="360" width="60" height="30" as="geometry"/>
                </mxCell>
                <mxCell id="159" value="" style="edgeStyle=none;orthogonalLoop=1;jettySize=auto;html=1;rounded=1;labelBackgroundColor=default;strokeColor=default;fontFamily=Helvetica;fontSize=11;fontColor=default;endArrow=classic;shape=connector;entryX=0.665;entryY=-0.004;entryDx=0;entryDy=0;entryPerimeter=0;" edge="1" parent="1" target="129">
                    <mxGeometry width="100" relative="1" as="geometry">
                        <mxPoint x="2120" y="305" as="sourcePoint"/>
                        <mxPoint x="2180" y="245" as="targetPoint"/>
                        <Array as="points"/>
                    </mxGeometry>
                </mxCell>
                <mxCell id="160" value="data_in" style="text;html=1;align=center;verticalAlign=middle;resizable=0;points=[];autosize=1;strokeColor=none;fillColor=none;fontSize=11;fontFamily=Helvetica;fontColor=default;" vertex="1" parent="1">
                    <mxGeometry x="2110" y="360" width="60" height="30" as="geometry"/>
                </mxCell>
                <mxCell id="161" value="" style="edgeStyle=none;orthogonalLoop=1;jettySize=auto;html=1;rounded=1;labelBackgroundColor=default;strokeColor=default;fontFamily=Helvetica;fontSize=11;fontColor=default;endArrow=classic;shape=connector;entryX=0.665;entryY=-0.004;entryDx=0;entryDy=0;entryPerimeter=0;" edge="1" parent="1">
                    <mxGeometry width="100" relative="1" as="geometry">
                        <mxPoint x="2740" y="440" as="sourcePoint"/>
                        <mxPoint x="2739.7999999999997" y="535" as="targetPoint"/>
                        <Array as="points"/>
                    </mxGeometry>
                </mxCell>
                <mxCell id="162" value="data_in" style="text;html=1;align=center;verticalAlign=middle;resizable=0;points=[];autosize=1;strokeColor=none;fillColor=none;fontSize=11;fontFamily=Helvetica;fontColor=default;" vertex="1" parent="1">
                    <mxGeometry x="2740" y="470.24" width="60" height="30" as="geometry"/>
                </mxCell>
                <mxCell id="188" style="edgeStyle=none;shape=connector;rounded=1;html=1;exitX=0.5;exitY=1;exitDx=0;exitDy=0;labelBackgroundColor=default;strokeColor=default;fontFamily=Helvetica;fontSize=11;fontColor=default;endArrow=classic;" edge="1" parent="1" source="164">
                    <mxGeometry relative="1" as="geometry">
                        <mxPoint x="2100" y="1540" as="targetPoint"/>
                    </mxGeometry>
                </mxCell>
                <mxCell id="164" value="reg_x1" style="whiteSpace=wrap;html=1;fontFamily=Helvetica;fontSize=11;fontColor=default;" vertex="1" parent="1">
                    <mxGeometry x="2040" y="1290" width="120" height="100" as="geometry"/>
                </mxCell>
                <mxCell id="190" style="edgeStyle=none;shape=connector;rounded=1;html=1;exitX=0.5;exitY=1;exitDx=0;exitDy=0;labelBackgroundColor=default;strokeColor=default;fontFamily=Helvetica;fontSize=11;fontColor=default;endArrow=classic;" edge="1" parent="1" source="165">
                    <mxGeometry relative="1" as="geometry">
                        <mxPoint x="2420" y="1550" as="targetPoint"/>
                    </mxGeometry>
                </mxCell>
                <mxCell id="165" value="reg_x2" style="whiteSpace=wrap;html=1;fontFamily=Helvetica;fontSize=11;fontColor=default;" vertex="1" parent="1">
                    <mxGeometry x="2360" y="1290" width="120" height="100" as="geometry"/>
                </mxCell>
                <mxCell id="166" value="reg_t" style="whiteSpace=wrap;html=1;fontFamily=Helvetica;fontSize=11;fontColor=default;" vertex="1" parent="1">
                    <mxGeometry x="2680" y="1290" width="120" height="100" as="geometry"/>
                </mxCell>
                <mxCell id="167" value="" style="edgeStyle=segmentEdgeStyle;endArrow=classic;html=1;curved=0;rounded=0;endSize=8;startSize=8;sourcePerimeterSpacing=0;targetPerimeterSpacing=0;labelBackgroundColor=default;strokeColor=default;fontFamily=Helvetica;fontSize=11;fontColor=default;shape=connector;entryX=0.5;entryY=0;entryDx=0;entryDy=0;" edge="1" parent="1" target="165">
                    <mxGeometry width="100" relative="1" as="geometry">
                        <mxPoint x="2390" y="1100" as="sourcePoint"/>
                        <mxPoint x="2450" y="1160" as="targetPoint"/>
                        <Array as="points">
                            <mxPoint x="2420" y="1100"/>
                        </Array>
                    </mxGeometry>
                </mxCell>
                <mxCell id="168" value="" style="edgeStyle=segmentEdgeStyle;endArrow=classic;html=1;curved=0;rounded=0;endSize=8;startSize=8;sourcePerimeterSpacing=0;targetPerimeterSpacing=0;labelBackgroundColor=default;strokeColor=default;fontFamily=Helvetica;fontSize=11;fontColor=default;shape=connector;entryX=0.5;entryY=0;entryDx=0;entryDy=0;" edge="1" parent="1" target="166">
                    <mxGeometry width="100" relative="1" as="geometry">
                        <mxPoint x="2420" y="1100" as="sourcePoint"/>
                        <mxPoint x="2520" y="1130" as="targetPoint"/>
                        <Array as="points">
                            <mxPoint x="2740" y="1100"/>
                        </Array>
                    </mxGeometry>
                </mxCell>
                <mxCell id="169" value="" style="edgeStyle=segmentEdgeStyle;endArrow=classic;html=1;curved=0;rounded=0;endSize=8;startSize=8;sourcePerimeterSpacing=0;targetPerimeterSpacing=0;labelBackgroundColor=default;strokeColor=default;fontFamily=Helvetica;fontSize=11;fontColor=default;shape=connector;entryX=0.5;entryY=0;entryDx=0;entryDy=0;" edge="1" parent="1" target="164">
                    <mxGeometry width="100" relative="1" as="geometry">
                        <mxPoint x="2100" y="1100" as="sourcePoint"/>
                        <mxPoint x="2190" y="1140" as="targetPoint"/>
                        <Array as="points">
                            <mxPoint x="2100" y="1100"/>
                        </Array>
                    </mxGeometry>
                </mxCell>
                <mxCell id="170" value="" style="edgeStyle=segmentEdgeStyle;endArrow=classic;html=1;curved=0;rounded=0;endSize=8;startSize=8;sourcePerimeterSpacing=0;targetPerimeterSpacing=0;labelBackgroundColor=default;strokeColor=default;fontFamily=Helvetica;fontSize=11;fontColor=default;shape=connector;entryX=0.25;entryY=0;entryDx=0;entryDy=0;" edge="1" parent="1" target="130">
                    <mxGeometry width="100" relative="1" as="geometry">
                        <mxPoint x="2100" y="1430" as="sourcePoint"/>
                        <mxPoint x="2200" y="730" as="targetPoint"/>
                        <Array as="points">
                            <mxPoint x="1920" y="1430"/>
                            <mxPoint x="1920" y="700"/>
                            <mxPoint x="2200" y="700"/>
                        </Array>
                    </mxGeometry>
                </mxCell>
                <mxCell id="171" value="" style="edgeStyle=segmentEdgeStyle;endArrow=classic;html=1;curved=0;rounded=0;endSize=8;startSize=8;targetPerimeterSpacing=0;labelBackgroundColor=default;strokeColor=default;fontFamily=Helvetica;fontSize=11;fontColor=default;shape=connector;entryX=0.303;entryY=0.01;entryDx=0;entryDy=0;entryPerimeter=0;startArrow=none;" edge="1" parent="1" source="172" target="131">
                    <mxGeometry width="100" relative="1" as="geometry">
                        <mxPoint x="2200" y="700" as="sourcePoint"/>
                        <mxPoint x="2150" y="820" as="targetPoint"/>
                        <Array as="points">
                            <mxPoint x="2516" y="700"/>
                            <mxPoint x="2516" y="736"/>
                        </Array>
                    </mxGeometry>
                </mxCell>
                <mxCell id="173" value="" style="edgeStyle=segmentEdgeStyle;endArrow=none;html=1;curved=0;rounded=0;endSize=8;startSize=8;sourcePerimeterSpacing=0;labelBackgroundColor=default;strokeColor=default;fontFamily=Helvetica;fontSize=11;fontColor=default;shape=connector;entryDx=0;entryDy=0;entryPerimeter=0;" edge="1" parent="1" target="172">
                    <mxGeometry width="100" relative="1" as="geometry">
                        <mxPoint x="2200" y="700" as="sourcePoint"/>
                        <mxPoint x="2516.3599999999997" y="735.6" as="targetPoint"/>
                        <Array as="points"/>
                    </mxGeometry>
                </mxCell>
                <mxCell id="172" value="" style="shape=waypoint;sketch=0;size=6;pointerEvents=1;points=[];fillColor=none;resizable=0;rotatable=0;perimeter=centerPerimeter;snapToPoint=1;fontFamily=Helvetica;fontSize=11;fontColor=default;" vertex="1" parent="1">
                    <mxGeometry x="2190" y="690" width="20" height="20" as="geometry"/>
                </mxCell>
                <mxCell id="174" value="" style="shape=waypoint;sketch=0;size=6;pointerEvents=1;points=[];fillColor=none;resizable=0;rotatable=0;perimeter=centerPerimeter;snapToPoint=1;fontFamily=Helvetica;fontSize=11;fontColor=default;" vertex="1" parent="1">
                    <mxGeometry x="2160" y="670" width="20" height="20" as="geometry"/>
                </mxCell>
                <mxCell id="176" value="" style="edgeStyle=none;shape=connector;rounded=1;html=1;exitX=0.511;exitY=1.007;exitDx=0;exitDy=0;labelBackgroundColor=default;strokeColor=default;fontFamily=Helvetica;fontSize=11;fontColor=default;endArrow=none;exitPerimeter=0;" edge="1" parent="1" source="132">
                    <mxGeometry relative="1" as="geometry">
                        <mxPoint x="2390" y="1055" as="targetPoint"/>
                        <mxPoint x="2385" y="975" as="sourcePoint"/>
                    </mxGeometry>
                </mxCell>
                <mxCell id="177" value="" style="shape=waypoint;sketch=0;size=6;pointerEvents=1;points=[];fillColor=none;resizable=0;rotatable=0;perimeter=centerPerimeter;snapToPoint=1;fontFamily=Helvetica;fontSize=11;fontColor=default;" vertex="1" parent="1">
                    <mxGeometry x="2410" y="1090" width="20" height="20" as="geometry"/>
                </mxCell>
                <mxCell id="179" value="" style="edgeStyle=segmentEdgeStyle;endArrow=none;html=1;curved=0;rounded=0;endSize=8;startSize=8;labelBackgroundColor=default;strokeColor=default;fontFamily=Helvetica;fontSize=11;fontColor=default;shape=connector;entryDx=0;entryDy=0;startArrow=none;" edge="1" parent="1" target="178">
                    <mxGeometry width="100" relative="1" as="geometry">
                        <mxPoint x="1945" y="1100" as="sourcePoint"/>
                        <mxPoint x="2070" y="410" as="targetPoint"/>
                        <Array as="points">
                            <mxPoint x="1890" y="1100"/>
                        </Array>
                    </mxGeometry>
                </mxCell>
                <mxCell id="178" value="" style="shape=waypoint;sketch=0;size=6;pointerEvents=1;points=[];fillColor=none;resizable=0;rotatable=0;perimeter=centerPerimeter;snapToPoint=1;fontFamily=Helvetica;fontSize=11;fontColor=default;" vertex="1" parent="1">
                    <mxGeometry x="2090" y="1090" width="20" height="20" as="geometry"/>
                </mxCell>
                <mxCell id="181" value="" style="edgeStyle=segmentEdgeStyle;endArrow=none;html=1;curved=0;rounded=0;endSize=8;startSize=8;sourcePerimeterSpacing=0;labelBackgroundColor=default;strokeColor=default;fontFamily=Helvetica;fontSize=11;fontColor=default;shape=connector;entryDx=0;entryDy=0;" edge="1" parent="1">
                    <mxGeometry width="100" relative="1" as="geometry">
                        <mxPoint x="2390" y="1049.9999999999998" as="sourcePoint"/>
                        <mxPoint x="1945" y="1100" as="targetPoint"/>
                        <Array as="points">
                            <mxPoint x="2390" y="1100"/>
                        </Array>
                    </mxGeometry>
                </mxCell>
                <mxCell id="185" value="" style="edgeStyle=none;shape=connector;rounded=1;html=1;exitX=0.5;exitY=1;exitDx=0;exitDy=0;labelBackgroundColor=default;strokeColor=default;fontFamily=Helvetica;fontSize=11;fontColor=default;endArrow=none;entryDx=0;entryDy=0;" edge="1" parent="1" source="109" target="184">
                    <mxGeometry relative="1" as="geometry">
                        <mxPoint x="2230" y="735" as="targetPoint"/>
                        <mxPoint x="2420" y="620" as="sourcePoint"/>
                        <Array as="points">
                            <mxPoint x="2420" y="640"/>
                        </Array>
                    </mxGeometry>
                </mxCell>
                <mxCell id="186" value="" style="edgeStyle=none;orthogonalLoop=1;jettySize=auto;html=1;entryDx=0;entryDy=0;endArrow=none;" edge="1" parent="1" target="184">
                    <mxGeometry width="100" relative="1" as="geometry">
                        <mxPoint x="2410" y="640.0000000000001" as="sourcePoint"/>
                        <mxPoint x="2540" y="735" as="targetPoint"/>
                        <Array as="points"/>
                    </mxGeometry>
                </mxCell>
                <mxCell id="184" value="" style="shape=waypoint;sketch=0;size=6;pointerEvents=1;points=[];fillColor=none;resizable=0;rotatable=0;perimeter=centerPerimeter;snapToPoint=1;fontFamily=Helvetica;fontSize=11;fontColor=default;" vertex="1" parent="1">
                    <mxGeometry x="2410" y="630" width="20" height="20" as="geometry"/>
                </mxCell>
                <mxCell id="189" value="regx1out" style="text;html=1;align=center;verticalAlign=middle;resizable=0;points=[];autosize=1;strokeColor=none;fillColor=none;fontSize=11;fontFamily=Helvetica;fontColor=default;" vertex="1" parent="1">
                    <mxGeometry x="2090" y="1500" width="70" height="30" as="geometry"/>
                </mxCell>
                <mxCell id="191" value="regx2out" style="text;html=1;align=center;verticalAlign=middle;resizable=0;points=[];autosize=1;strokeColor=none;fillColor=none;fontSize=11;fontFamily=Helvetica;fontColor=default;" vertex="1" parent="1">
                    <mxGeometry x="2410" y="1500" width="70" height="30" as="geometry"/>
                </mxCell>
                <mxCell id="193" value="regxtout" style="text;html=1;align=center;verticalAlign=middle;resizable=0;points=[];autosize=1;strokeColor=none;fillColor=none;fontSize=11;fontFamily=Helvetica;fontColor=default;" vertex="1" parent="1">
                    <mxGeometry x="2757.5" y="1415" width="60" height="30" as="geometry"/>
                </mxCell>
                <mxCell id="194" value="" style="edgeStyle=none;orthogonalLoop=1;jettySize=auto;html=1;" edge="1" parent="1">
                    <mxGeometry width="100" relative="1" as="geometry">
                        <mxPoint x="1940" y="1310" as="sourcePoint"/>
                        <mxPoint x="2040" y="1310" as="targetPoint"/>
                        <Array as="points"/>
                    </mxGeometry>
                </mxCell>
                <mxCell id="195" value="" style="edgeStyle=none;orthogonalLoop=1;jettySize=auto;html=1;" edge="1" parent="1">
                    <mxGeometry width="100" relative="1" as="geometry">
                        <mxPoint x="1939.9999999999995" y="1340" as="sourcePoint"/>
                        <mxPoint x="2040" y="1340" as="targetPoint"/>
                        <Array as="points"/>
                    </mxGeometry>
                </mxCell>
                <mxCell id="196" value="" style="edgeStyle=none;orthogonalLoop=1;jettySize=auto;html=1;" edge="1" parent="1">
                    <mxGeometry width="100" relative="1" as="geometry">
                        <mxPoint x="1939.9999999999995" y="1370" as="sourcePoint"/>
                        <mxPoint x="2040" y="1370" as="targetPoint"/>
                        <Array as="points"/>
                    </mxGeometry>
                </mxCell>
                <mxCell id="197" value="regx1_we" style="text;html=1;align=center;verticalAlign=middle;resizable=0;points=[];autosize=1;strokeColor=none;fillColor=none;" vertex="1" parent="1">
                    <mxGeometry x="1945" y="1280" width="80" height="30" as="geometry"/>
                </mxCell>
                <mxCell id="198" value="regx1_cyc" style="text;html=1;align=center;verticalAlign=middle;resizable=0;points=[];autosize=1;strokeColor=none;fillColor=none;" vertex="1" parent="1">
                    <mxGeometry x="1945" y="1310" width="80" height="30" as="geometry"/>
                </mxCell>
                <mxCell id="199" value="regx1_rs" style="text;html=1;align=center;verticalAlign=middle;resizable=0;points=[];autosize=1;strokeColor=none;fillColor=none;" vertex="1" parent="1">
                    <mxGeometry x="1950" y="1340" width="70" height="30" as="geometry"/>
                </mxCell>
                <mxCell id="200" value="" style="edgeStyle=none;orthogonalLoop=1;jettySize=auto;html=1;" edge="1" parent="1">
                    <mxGeometry width="100" relative="1" as="geometry">
                        <mxPoint x="2260" y="1320" as="sourcePoint"/>
                        <mxPoint x="2360" y="1320" as="targetPoint"/>
                        <Array as="points"/>
                    </mxGeometry>
                </mxCell>
                <mxCell id="201" value="" style="edgeStyle=none;orthogonalLoop=1;jettySize=auto;html=1;" edge="1" parent="1">
                    <mxGeometry width="100" relative="1" as="geometry">
                        <mxPoint x="2259.9999999999995" y="1350" as="sourcePoint"/>
                        <mxPoint x="2360" y="1350" as="targetPoint"/>
                        <Array as="points"/>
                    </mxGeometry>
                </mxCell>
                <mxCell id="202" value="" style="edgeStyle=none;orthogonalLoop=1;jettySize=auto;html=1;" edge="1" parent="1">
                    <mxGeometry width="100" relative="1" as="geometry">
                        <mxPoint x="2259.9999999999995" y="1380" as="sourcePoint"/>
                        <mxPoint x="2360" y="1380" as="targetPoint"/>
                        <Array as="points"/>
                    </mxGeometry>
                </mxCell>
                <mxCell id="203" value="regx2_we" style="text;html=1;align=center;verticalAlign=middle;resizable=0;points=[];autosize=1;strokeColor=none;fillColor=none;" vertex="1" parent="1">
                    <mxGeometry x="2265" y="1290" width="80" height="30" as="geometry"/>
                </mxCell>
                <mxCell id="204" value="regx2_cyc" style="text;html=1;align=center;verticalAlign=middle;resizable=0;points=[];autosize=1;strokeColor=none;fillColor=none;" vertex="1" parent="1">
                    <mxGeometry x="2265" y="1320" width="80" height="30" as="geometry"/>
                </mxCell>
                <mxCell id="205" value="regx2_rs" style="text;html=1;align=center;verticalAlign=middle;resizable=0;points=[];autosize=1;strokeColor=none;fillColor=none;" vertex="1" parent="1">
                    <mxGeometry x="2270" y="1350" width="70" height="30" as="geometry"/>
                </mxCell>
                <mxCell id="206" value="" style="edgeStyle=none;orthogonalLoop=1;jettySize=auto;html=1;" edge="1" parent="1">
                    <mxGeometry width="100" relative="1" as="geometry">
                        <mxPoint x="2580" y="1320" as="sourcePoint"/>
                        <mxPoint x="2680" y="1320" as="targetPoint"/>
                        <Array as="points"/>
                    </mxGeometry>
                </mxCell>
                <mxCell id="207" value="" style="edgeStyle=none;orthogonalLoop=1;jettySize=auto;html=1;" edge="1" parent="1">
                    <mxGeometry width="100" relative="1" as="geometry">
                        <mxPoint x="2580" y="1350" as="sourcePoint"/>
                        <mxPoint x="2680" y="1350" as="targetPoint"/>
                        <Array as="points"/>
                    </mxGeometry>
                </mxCell>
                <mxCell id="208" value="" style="edgeStyle=none;orthogonalLoop=1;jettySize=auto;html=1;" edge="1" parent="1">
                    <mxGeometry width="100" relative="1" as="geometry">
                        <mxPoint x="2580" y="1380" as="sourcePoint"/>
                        <mxPoint x="2680" y="1380" as="targetPoint"/>
                        <Array as="points"/>
                    </mxGeometry>
                </mxCell>
                <mxCell id="209" value="regt_we" style="text;html=1;align=center;verticalAlign=middle;resizable=0;points=[];autosize=1;strokeColor=none;fillColor=none;" vertex="1" parent="1">
                    <mxGeometry x="2590" y="1290" width="70" height="30" as="geometry"/>
                </mxCell>
                <mxCell id="210" value="regt_cyc" style="text;html=1;align=center;verticalAlign=middle;resizable=0;points=[];autosize=1;strokeColor=none;fillColor=none;" vertex="1" parent="1">
                    <mxGeometry x="2590" y="1320" width="70" height="30" as="geometry"/>
                </mxCell>
                <mxCell id="211" value="regt_rs" style="text;html=1;align=center;verticalAlign=middle;resizable=0;points=[];autosize=1;strokeColor=none;fillColor=none;" vertex="1" parent="1">
                    <mxGeometry x="2595" y="1350" width="60" height="30" as="geometry"/>
                </mxCell>
                <mxCell id="212" value="" style="edgeStyle=segmentEdgeStyle;endArrow=classic;html=1;curved=0;rounded=0;endSize=8;startSize=8;targetPerimeterSpacing=0;labelBackgroundColor=default;strokeColor=default;fontFamily=Helvetica;fontSize=11;fontColor=default;shape=connector;entryX=0.5;entryY=0;entryDx=0;entryDy=0;startArrow=none;" edge="1" parent="1" source="182" target="109">
                    <mxGeometry width="100" relative="1" as="geometry">
                        <mxPoint x="1890" y="1100" as="sourcePoint"/>
                        <mxPoint x="2150" y="735" as="targetPoint"/>
                        <Array as="points">
                            <mxPoint x="1890" y="500"/>
                            <mxPoint x="2420" y="500"/>
                        </Array>
                    </mxGeometry>
                </mxCell>
                <mxCell id="213" value="" style="edgeStyle=segmentEdgeStyle;endArrow=none;html=1;curved=0;rounded=0;endSize=8;startSize=8;sourcePerimeterSpacing=0;labelBackgroundColor=default;strokeColor=default;fontFamily=Helvetica;fontSize=11;fontColor=default;shape=connector;entryDx=0;entryDy=0;" edge="1" parent="1" target="182">
                    <mxGeometry width="100" relative="1" as="geometry">
                        <mxPoint x="1890" y="1100" as="sourcePoint"/>
                        <mxPoint x="2420" y="535" as="targetPoint"/>
                        <Array as="points"/>
                    </mxGeometry>
                </mxCell>
                <mxCell id="182" value="" style="shape=waypoint;sketch=0;size=6;pointerEvents=1;points=[];fillColor=none;resizable=0;rotatable=0;perimeter=centerPerimeter;snapToPoint=1;fontFamily=Helvetica;fontSize=11;fontColor=default;" vertex="1" parent="1">
                    <mxGeometry x="1880" y="1090" width="20" height="20" as="geometry"/>
                </mxCell>
                <mxCell id="214" value="Dcache" style="whiteSpace=wrap;html=1;fontFamily=Helvetica;fontSize=11;fontColor=default;" vertex="1" parent="1">
                    <mxGeometry x="1060" y="1630" width="230" height="160" as="geometry"/>
                </mxCell>
                <mxCell id="221" style="edgeStyle=none;shape=connector;rounded=1;html=1;exitX=0.5;exitY=1;exitDx=0;exitDy=0;labelBackgroundColor=default;strokeColor=default;fontFamily=Helvetica;fontSize=11;fontColor=default;endArrow=classic;entryX=0.5;entryY=0;entryDx=0;entryDy=0;" edge="1" parent="1" source="215" target="235">
                    <mxGeometry relative="1" as="geometry">
                        <mxPoint x="999.9999999999995" y="1930" as="targetPoint"/>
                    </mxGeometry>
                </mxCell>
                <mxCell id="215" value="scache2flit" style="whiteSpace=wrap;html=1;fontFamily=Helvetica;fontSize=11;fontColor=default;" vertex="1" parent="1">
                    <mxGeometry x="1110" y="1770" width="120" height="20" as="geometry"/>
                </mxCell>
                <mxCell id="216" value="xbar" style="whiteSpace=wrap;html=1;fontFamily=Helvetica;fontSize=11;fontColor=default;" vertex="1" parent="1">
                    <mxGeometry x="830" y="1930" width="380" height="200" as="geometry"/>
                </mxCell>
                <mxCell id="217" value="Icache" style="whiteSpace=wrap;html=1;fontFamily=Helvetica;fontSize=11;fontColor=default;" vertex="1" parent="1">
                    <mxGeometry x="700" y="1630" width="230" height="160" as="geometry"/>
                </mxCell>
                <mxCell id="220" style="edgeStyle=none;shape=connector;rounded=1;html=1;exitX=0.5;exitY=1;exitDx=0;exitDy=0;labelBackgroundColor=default;strokeColor=default;fontFamily=Helvetica;fontSize=11;fontColor=default;endArrow=classic;entryX=0.5;entryY=0;entryDx=0;entryDy=0;" edge="1" parent="1" source="218" target="224">
                    <mxGeometry relative="1" as="geometry">
                        <mxPoint x="850" y="1920" as="targetPoint"/>
                    </mxGeometry>
                </mxCell>
                <mxCell id="218" value="scache2flit" style="whiteSpace=wrap;html=1;fontFamily=Helvetica;fontSize=11;fontColor=default;" vertex="1" parent="1">
                    <mxGeometry x="750" y="1770" width="120" height="20" as="geometry"/>
                </mxCell>
                <mxCell id="222" value="valid-ready" style="text;html=1;align=center;verticalAlign=middle;resizable=0;points=[];autosize=1;strokeColor=none;fillColor=none;fontSize=11;fontFamily=Helvetica;fontColor=default;" vertex="1" parent="1">
                    <mxGeometry x="1130" y="1720" width="80" height="30" as="geometry"/>
                </mxCell>
                <mxCell id="223" value="lcrdv" style="text;html=1;align=center;verticalAlign=middle;resizable=0;points=[];autosize=1;strokeColor=none;fillColor=none;fontSize=11;fontFamily=Helvetica;fontColor=default;" vertex="1" parent="1">
                    <mxGeometry x="1145" y="1790" width="50" height="30" as="geometry"/>
                </mxCell>
                <mxCell id="224" value="flit2scache" style="whiteSpace=wrap;html=1;fontFamily=Helvetica;fontSize=11;fontColor=default;" vertex="1" parent="1">
                    <mxGeometry x="850" y="1930" width="120" height="20" as="geometry"/>
                </mxCell>
                <mxCell id="227" value="chi2flit" style="whiteSpace=wrap;html=1;fontFamily=Helvetica;fontSize=11;fontColor=default;" vertex="1" parent="1">
                    <mxGeometry x="750" y="1750" width="120" height="20" as="geometry"/>
                </mxCell>
                <mxCell id="228" value="chi2flit" style="whiteSpace=wrap;html=1;fontFamily=Helvetica;fontSize=11;fontColor=default;" vertex="1" parent="1">
                    <mxGeometry x="1110" y="1750" width="120" height="20" as="geometry"/>
                </mxCell>
                <mxCell id="229" value="flit2chi" style="whiteSpace=wrap;html=1;fontFamily=Helvetica;fontSize=11;fontColor=default;" vertex="1" parent="1">
                    <mxGeometry x="850" y="1950" width="120" height="20" as="geometry"/>
                </mxCell>
                <mxCell id="230" value="valid-ready" style="text;html=1;align=center;verticalAlign=middle;resizable=0;points=[];autosize=1;strokeColor=none;fillColor=none;fontSize=11;fontFamily=Helvetica;fontColor=default;" vertex="1" parent="1">
                    <mxGeometry x="775" y="1720" width="80" height="30" as="geometry"/>
                </mxCell>
                <mxCell id="232" value="lcrdv" style="text;html=1;align=center;verticalAlign=middle;resizable=0;points=[];autosize=1;strokeColor=none;fillColor=none;fontSize=11;fontFamily=Helvetica;fontColor=default;" vertex="1" parent="1">
                    <mxGeometry x="775" y="1790" width="50" height="30" as="geometry"/>
                </mxCell>
                <mxCell id="233" value="lcrdv" style="text;html=1;align=center;verticalAlign=middle;resizable=0;points=[];autosize=1;strokeColor=none;fillColor=none;fontSize=11;fontFamily=Helvetica;fontColor=default;" vertex="1" parent="1">
                    <mxGeometry x="900" y="1900" width="50" height="30" as="geometry"/>
                </mxCell>
                <mxCell id="234" value="valid-ready" style="text;html=1;align=center;verticalAlign=middle;resizable=0;points=[];autosize=1;strokeColor=none;fillColor=none;fontSize=11;fontFamily=Helvetica;fontColor=default;" vertex="1" parent="1">
                    <mxGeometry x="870" y="1960" width="80" height="30" as="geometry"/>
                </mxCell>
                <mxCell id="235" value="flit2scache" style="whiteSpace=wrap;html=1;fontFamily=Helvetica;fontSize=11;fontColor=default;" vertex="1" parent="1">
                    <mxGeometry x="1070" y="1930" width="120" height="20" as="geometry"/>
                </mxCell>
                <mxCell id="236" value="flit2chi" style="whiteSpace=wrap;html=1;fontFamily=Helvetica;fontSize=11;fontColor=default;" vertex="1" parent="1">
                    <mxGeometry x="1070" y="1950" width="120" height="20" as="geometry"/>
                </mxCell>
                <mxCell id="237" value="lcrdv" style="text;html=1;align=center;verticalAlign=middle;resizable=0;points=[];autosize=1;strokeColor=none;fillColor=none;fontSize=11;fontFamily=Helvetica;fontColor=default;" vertex="1" parent="1">
                    <mxGeometry x="1090" y="1900" width="50" height="30" as="geometry"/>
                </mxCell>
                <mxCell id="238" value="valid-ready" style="text;html=1;align=center;verticalAlign=middle;resizable=0;points=[];autosize=1;strokeColor=none;fillColor=none;fontSize=11;fontFamily=Helvetica;fontColor=default;" vertex="1" parent="1">
                    <mxGeometry x="1090" y="1960" width="80" height="30" as="geometry"/>
                </mxCell>
                <mxCell id="239" value="scache2flit" style="whiteSpace=wrap;html=1;fontFamily=Helvetica;fontSize=11;fontColor=default;" vertex="1" parent="1">
                    <mxGeometry x="960" y="2110" width="120" height="20" as="geometry"/>
                </mxCell>
                <mxCell id="240" value="valid-ready" style="text;html=1;align=center;verticalAlign=middle;resizable=0;points=[];autosize=1;strokeColor=none;fillColor=none;fontSize=11;fontFamily=Helvetica;fontColor=default;" vertex="1" parent="1">
                    <mxGeometry x="980" y="2060" width="80" height="30" as="geometry"/>
                </mxCell>
                <mxCell id="241" value="lcrdv" style="text;html=1;align=center;verticalAlign=middle;resizable=0;points=[];autosize=1;strokeColor=none;fillColor=none;fontSize=11;fontFamily=Helvetica;fontColor=default;" vertex="1" parent="1">
                    <mxGeometry x="995" y="2130" width="50" height="30" as="geometry"/>
                </mxCell>
                <mxCell id="242" value="chi2flit" style="whiteSpace=wrap;html=1;fontFamily=Helvetica;fontSize=11;fontColor=default;" vertex="1" parent="1">
                    <mxGeometry x="960" y="2090" width="120" height="20" as="geometry"/>
                </mxCell>
                <mxCell id="243" value="此flit2scache模块名中&lt;br&gt;scache并非是指L2&lt;br&gt;目前代指一切valid-ready&lt;br&gt;握手方式的master" style="text;html=1;align=center;verticalAlign=middle;resizable=0;points=[];autosize=1;strokeColor=none;fillColor=none;fontSize=11;fontFamily=Helvetica;fontColor=default;" vertex="1" parent="1">
                    <mxGeometry x="680" y="1885" width="140" height="70" as="geometry"/>
                </mxCell>
                <mxCell id="244" value="" style="edgeStyle=segmentEdgeStyle;endArrow=classic;html=1;curved=0;rounded=0;endSize=8;startSize=8;sourcePerimeterSpacing=0;targetPerimeterSpacing=0;labelBackgroundColor=default;strokeColor=default;fontFamily=Helvetica;fontSize=11;fontColor=default;shape=connector;exitX=0.5;exitY=1;exitDx=0;exitDy=0;entryX=0.665;entryY=-0.002;entryDx=0;entryDy=0;entryPerimeter=0;" edge="1" parent="1" source="166" target="131">
                    <mxGeometry width="100" relative="1" as="geometry">
                        <mxPoint x="2820" y="1010" as="sourcePoint"/>
                        <mxPoint x="2560" y="730" as="targetPoint"/>
                        <Array as="points">
                            <mxPoint x="2740" y="1460"/>
                            <mxPoint x="2870" y="1460"/>
                            <mxPoint x="2870" y="660"/>
                            <mxPoint x="2560" y="660"/>
                        </Array>
                    </mxGeometry>
                </mxCell>
                <mxCell id="245" value="" style="edgeStyle=segmentEdgeStyle;endArrow=classic;html=1;curved=0;rounded=0;endSize=8;startSize=8;sourcePerimeterSpacing=0;targetPerimeterSpacing=0;labelBackgroundColor=default;strokeColor=default;fontFamily=Helvetica;fontSize=11;fontColor=default;shape=connector;entryX=0.664;entryY=-0.023;entryDx=0;entryDy=0;entryPerimeter=0;" edge="1" parent="1" target="130">
                    <mxGeometry width="100" relative="1" as="geometry">
                        <mxPoint x="2560" y="660" as="sourcePoint"/>
                        <mxPoint x="2610" y="650" as="targetPoint"/>
                        <Array as="points">
                            <mxPoint x="2250" y="660"/>
                        </Array>
                    </mxGeometry>
                </mxCell>
                <mxCell id="246" value="" style="shape=waypoint;sketch=0;size=6;pointerEvents=1;points=[];fillColor=none;resizable=0;rotatable=0;perimeter=centerPerimeter;snapToPoint=1;fontFamily=Helvetica;fontSize=11;fontColor=default;" vertex="1" parent="1">
                    <mxGeometry x="2550" y="650" width="20" height="20" as="geometry"/>
                </mxCell>
                <mxCell id="248" value="xbar" style="whiteSpace=wrap;html=1;fontFamily=Helvetica;fontSize=11;fontColor=default;" vertex="1" parent="1">
                    <mxGeometry x="490" y="2230" width="380" height="200" as="geometry"/>
                </mxCell>
                <mxCell id="249" value="flit2scache" style="whiteSpace=wrap;html=1;fontFamily=Helvetica;fontSize=11;fontColor=default;" vertex="1" parent="1">
                    <mxGeometry x="510" y="2230" width="120" height="20" as="geometry"/>
                </mxCell>
                <mxCell id="250" value="flit2chi" style="whiteSpace=wrap;html=1;fontFamily=Helvetica;fontSize=11;fontColor=default;" vertex="1" parent="1">
                    <mxGeometry x="510" y="2250" width="120" height="20" as="geometry"/>
                </mxCell>
                <mxCell id="251" value="lcrdv" style="text;html=1;align=center;verticalAlign=middle;resizable=0;points=[];autosize=1;strokeColor=none;fillColor=none;fontSize=11;fontFamily=Helvetica;fontColor=default;" vertex="1" parent="1">
                    <mxGeometry x="560" y="2200" width="50" height="30" as="geometry"/>
                </mxCell>
                <mxCell id="252" value="valid-ready" style="text;html=1;align=center;verticalAlign=middle;resizable=0;points=[];autosize=1;strokeColor=none;fillColor=none;fontSize=11;fontFamily=Helvetica;fontColor=default;" vertex="1" parent="1">
                    <mxGeometry x="530" y="2260" width="80" height="30" as="geometry"/>
                </mxCell>
                <mxCell id="253" value="flit2scache" style="whiteSpace=wrap;html=1;fontFamily=Helvetica;fontSize=11;fontColor=default;" vertex="1" parent="1">
                    <mxGeometry x="730" y="2230" width="120" height="20" as="geometry"/>
                </mxCell>
                <mxCell id="254" value="flit2chi" style="whiteSpace=wrap;html=1;fontFamily=Helvetica;fontSize=11;fontColor=default;" vertex="1" parent="1">
                    <mxGeometry x="730" y="2250" width="120" height="20" as="geometry"/>
                </mxCell>
                <mxCell id="255" value="lcrdv" style="text;html=1;align=center;verticalAlign=middle;resizable=0;points=[];autosize=1;strokeColor=none;fillColor=none;fontSize=11;fontFamily=Helvetica;fontColor=default;" vertex="1" parent="1">
                    <mxGeometry x="750" y="2200" width="50" height="30" as="geometry"/>
                </mxCell>
                <mxCell id="256" value="valid-ready" style="text;html=1;align=center;verticalAlign=middle;resizable=0;points=[];autosize=1;strokeColor=none;fillColor=none;fontSize=11;fontFamily=Helvetica;fontColor=default;" vertex="1" parent="1">
                    <mxGeometry x="750" y="2260" width="80" height="30" as="geometry"/>
                </mxCell>
                <mxCell id="257" value="scache2flit" style="whiteSpace=wrap;html=1;fontFamily=Helvetica;fontSize=11;fontColor=default;" vertex="1" parent="1">
                    <mxGeometry x="620" y="2410" width="120" height="20" as="geometry"/>
                </mxCell>
                <mxCell id="258" value="valid-ready" style="text;html=1;align=center;verticalAlign=middle;resizable=0;points=[];autosize=1;strokeColor=none;fillColor=none;fontSize=11;fontFamily=Helvetica;fontColor=default;" vertex="1" parent="1">
                    <mxGeometry x="640" y="2360" width="80" height="30" as="geometry"/>
                </mxCell>
                <mxCell id="259" value="lcrdv" style="text;html=1;align=center;verticalAlign=middle;resizable=0;points=[];autosize=1;strokeColor=none;fillColor=none;fontSize=11;fontFamily=Helvetica;fontColor=default;" vertex="1" parent="1">
                    <mxGeometry x="655" y="2430" width="50" height="30" as="geometry"/>
                </mxCell>
                <mxCell id="260" value="chi2flit" style="whiteSpace=wrap;html=1;fontFamily=Helvetica;fontSize=11;fontColor=default;" vertex="1" parent="1">
                    <mxGeometry x="620" y="2390" width="120" height="20" as="geometry"/>
                </mxCell>
                <mxCell id="261" value="" style="edgeStyle=none;orthogonalLoop=1;jettySize=auto;html=1;rounded=1;labelBackgroundColor=default;strokeColor=default;fontFamily=Helvetica;fontSize=11;fontColor=default;endArrow=classic;shape=connector;exitX=0.503;exitY=1.059;exitDx=0;exitDy=0;exitPerimeter=0;entryX=0.89;entryY=1.09;entryDx=0;entryDy=0;entryPerimeter=0;" edge="1" parent="1" source="241" target="255">
                    <mxGeometry width="100" relative="1" as="geometry">
                        <mxPoint x="990" y="2260" as="sourcePoint"/>
                        <mxPoint x="1090" y="2260" as="targetPoint"/>
                        <Array as="points"/>
                    </mxGeometry>
                </mxCell>
                <mxCell id="262" value="chi2axi" style="whiteSpace=wrap;html=1;fontFamily=Helvetica;fontSize=11;fontColor=default;" vertex="1" parent="1">
                    <mxGeometry x="520" y="2630" width="290" height="130" as="geometry"/>
                </mxCell>
                <mxCell id="263" value="" style="edgeStyle=segmentEdgeStyle;endArrow=classic;html=1;curved=0;rounded=0;endSize=8;startSize=8;sourcePerimeterSpacing=0;targetPerimeterSpacing=0;labelBackgroundColor=default;strokeColor=default;fontFamily=Helvetica;fontSize=11;fontColor=default;shape=connector;entryX=0.872;entryY=0.026;entryDx=0;entryDy=0;entryPerimeter=0;" edge="1" parent="1" target="130">
                    <mxGeometry width="100" relative="1" as="geometry">
                        <mxPoint x="2420" y="1490" as="sourcePoint"/>
                        <mxPoint x="2610" y="1470" as="targetPoint"/>
                        <Array as="points">
                            <mxPoint x="2860" y="1490"/>
                            <mxPoint x="2860" y="670"/>
                            <mxPoint x="2275" y="670"/>
                        </Array>
                    </mxGeometry>
                </mxCell>
                <mxCell id="264" value="" style="edgeStyle=none;orthogonalLoop=1;jettySize=auto;html=1;rounded=1;labelBackgroundColor=default;strokeColor=default;fontFamily=Helvetica;fontSize=11;fontColor=default;endArrow=classic;shape=connector;entryX=0.834;entryY=-0.003;entryDx=0;entryDy=0;entryPerimeter=0;startArrow=none;" edge="1" parent="1" source="265" target="131">
                    <mxGeometry width="100" relative="1" as="geometry">
                        <mxPoint x="2580" y="670" as="sourcePoint"/>
                        <mxPoint x="2640" y="690" as="targetPoint"/>
                        <Array as="points"/>
                    </mxGeometry>
                </mxCell>
                <mxCell id="266" value="" style="edgeStyle=none;orthogonalLoop=1;jettySize=auto;html=1;rounded=1;labelBackgroundColor=default;strokeColor=default;fontFamily=Helvetica;fontSize=11;fontColor=default;endArrow=none;shape=connector;entryDx=0;entryDy=0;entryPerimeter=0;" edge="1" parent="1" target="265">
                    <mxGeometry width="100" relative="1" as="geometry">
                        <mxPoint x="2580" y="670" as="sourcePoint"/>
                        <mxPoint x="2580.08" y="734.82" as="targetPoint"/>
                        <Array as="points"/>
                    </mxGeometry>
                </mxCell>
                <mxCell id="265" value="" style="shape=waypoint;sketch=0;size=6;pointerEvents=1;points=[];fillColor=none;resizable=0;rotatable=0;perimeter=centerPerimeter;snapToPoint=1;fontFamily=Helvetica;fontSize=11;fontColor=default;" vertex="1" parent="1">
                    <mxGeometry x="2570" y="660" width="20" height="20" as="geometry"/>
                </mxCell>
            </root>
        </mxGraphModel>
    </diagram>
</mxfile>